HIERARCHY
ROOT hip
{
	OFFSET 0.000000 0.000000 0.000000 
	CHANNELS 6 Xposition Yposition Zposition Xrotation Zrotation Yrotation
	JOINT abdomen
	{
		OFFSET 0.000000 3.402643 0.000000 
		CHANNELS 3 Xrotation Zrotation Yrotation
		JOINT chest
		{
			OFFSET 0.000000 8.438565 -0.680529 
			CHANNELS 3 Xrotation Zrotation Yrotation
			JOINT neck
			{
				OFFSET 0.000000 10.207942 -0.272212 
				CHANNELS 3 Xrotation Zrotation Yrotation
				JOINT head
				{
					OFFSET 0.000000 3.130431 0.000000 
					CHANNELS 3 Xrotation Zrotation Yrotation
					End Site
					{
						OFFSET 0.000000 3.130435 0.000000 
					}
				}
			}
			JOINT lCollar
			{
				OFFSET 3.470700 6.669187 -0.816635 
				CHANNELS 3 Yrotation Zrotation Xrotation
				JOINT lShldr
				{
					OFFSET 3.198488 0.000000 0.000000 
					CHANNELS 3 Zrotation Yrotation Xrotation
					JOINT lForeArm
					{
						OFFSET 10.139888 0.000000 0.000000 
						CHANNELS 3 Yrotation Zrotation Xrotation
						JOINT lHand
						{
							OFFSET 8.370511 0.000000 0.000000 
							CHANNELS 3 Zrotation Yrotation Xrotation
							End Site
							{
								OFFSET 4.083176 0.000000 0.000000 
							}
						}
					}
				}
			}
			JOINT rCollar
			{
				OFFSET -3.470700 6.669187 -0.816635 
				CHANNELS 3 Yrotation Zrotation Xrotation
				JOINT rShldr
				{
					OFFSET -3.198488 0.000000 0.000000 
					CHANNELS 3 Zrotation Yrotation Xrotation
					JOINT rForeArm
					{
						OFFSET -10.139888 0.000000 0.000000 
						CHANNELS 3 Yrotation Zrotation Xrotation
						JOINT rHand
						{
							OFFSET -8.370511 0.000000 0.000000 
							CHANNELS 3 Zrotation Yrotation Xrotation
							End Site
							{
								OFFSET -4.083176 0.000000 0.000000 
							}
						}
					}
				}
			}
		}
	}
	JOINT lThigh
	{
		OFFSET 5.308129 -1.633274 1.361059 
		CHANNELS 3 Xrotation Zrotation Yrotation
		JOINT lShin
		{
			OFFSET -2.041588 -20.007561 0.000000 
			CHANNELS 3 Xrotation Zrotation Yrotation
			JOINT lFoot
			{
				OFFSET 0.000000 -19.190928 -1.224953 
				CHANNELS 3 Xrotation Yrotation Zrotation
				End Site
				{
					OFFSET 0.000000 -2.449906 4.627600 
				}
			}
		}
	}
	JOINT rThigh
	{
		OFFSET -5.308129 -1.633274 1.361059 
		CHANNELS 3 Xrotation Zrotation Yrotation
		JOINT rShin
		{
			OFFSET 2.041588 -20.007561 0.000000 
			CHANNELS 3 Xrotation Zrotation Yrotation
			JOINT rFoot
			{
				OFFSET 0.000000 -19.190928 -1.224953 
				CHANNELS 3 Xrotation Yrotation Zrotation
				End Site
				{
					OFFSET 0.000000 -2.449906 4.627600 
				}
			}
		}
	}
}
MOTION
Frames: 20
Frame Time: 0.016667
0.432413 47.710224 0.019632 -0.586068 1.210874 3.522774 -17.766870 -1.069497 -0.184732 27.822390 0.164098 -0.313762 6.035607 0.699228 -0.287285 7.861691 4.962916 0.089501 1.993405 -2.003458 -0.008156 -83.284637 -2.163628 6.527984 -54.660065 -0.517706 -1.320904 -0.055843 -0.006794 45.917969 -2.003062 1.991579 -0.506922 85.164337 2.282359 14.132606 52.430828 0.091103 -0.582916 0.051610 -0.006826 45.654297 -10.343301 3.522419 1.249856 28.693287 3.235512 2.002271 -21.558565 17.629072 7.570296 -11.802286 -2.723977 4.801939 33.952988 -3.013095 -2.387115 -18.488424 -18.182531 -6.826797 
0.431108 47.713100 0.028697 -0.566552 1.298765 3.463724 -17.767452 -1.162495 -0.018224 27.822268 0.017273 -0.264319 6.025946 0.776934 -0.279191 7.861575 4.953242 0.097934 1.993405 -2.003458 -0.008156 -83.047348 -2.075485 6.723164 -54.796936 -0.522530 -1.316505 -0.055830 -0.006807 45.810547 -2.003062 1.991579 -0.506922 85.371803 2.218613 13.868377 52.489418 0.090507 -0.583009 0.051604 -0.006820 45.703125 -10.385544 3.396863 1.255232 28.846395 3.275120 2.009786 -21.857040 17.577576 7.610229 -11.867569 -2.811495 4.851485 34.078087 -3.032630 -2.371688 -18.498215 -18.213411 -6.769109 
0.426419 47.707973 0.033216 -0.605591 1.152279 3.435089 -17.728262 -1.144145 0.023866 27.851604 -0.094978 -0.245514 6.113888 0.805937 -0.323703 7.930069 4.942751 0.092726 1.993405 -2.003458 -0.008156 -82.922501 -2.123243 6.889423 -54.865276 -0.520959 -1.317128 -0.055817 -0.006821 45.693359 -2.003062 1.991579 -0.506922 85.466385 2.267251 13.741531 52.479649 0.090606 -0.582993 0.051613 -0.006830 45.624996 -10.388861 3.554018 1.309890 28.982452 3.289585 2.011882 -21.872587 17.567608 7.582797 -11.860447 -2.675337 4.777295 34.061226 -3.017443 -2.406370 -18.478649 -18.137426 -6.764964 
0.421865 47.708351 0.039963 -0.625104 1.044860 3.435868 -17.708609 -1.125664 0.037069 27.861416 -0.138138 -0.239060 6.240754 0.737790 -0.300062 7.998210 4.903245 0.102960 1.993405 -2.003458 -0.008156 -82.867989 -2.132585 6.967494 -54.904331 -0.520061 -1.317482 -0.055811 -0.006827 45.644531 -2.003062 1.991579 -0.506922 85.533081 2.305483 13.712650 52.450359 0.090904 -0.582947 0.051625 -0.006841 45.527344 -10.396256 3.680178 1.306553 29.032457 3.284884 2.019919 -21.834419 17.598070 7.549012 -11.835636 -2.558476 4.675557 34.037739 -3.042388 -2.365334 -18.473404 -18.116009 -6.749892 
0.417885 47.709602 0.047947 -0.625091 0.976504 3.417083 -17.698666 -1.097815 0.037739 27.880970 -0.155377 -0.228712 6.328571 0.679428 -0.295632 8.046864 4.873648 0.102212 1.993405 -2.003458 -0.008156 -82.856209 -2.113154 6.977253 -54.933624 -0.519387 -1.317748 -0.055812 -0.006826 45.654297 -2.003062 1.991579 -0.506922 85.547882 2.324361 13.722805 52.401531 0.091401 -0.582869 0.051631 -0.006847 45.478516 -10.413175 3.776866 1.304354 29.091579 3.294696 2.050881 -21.857998 17.558893 7.564598 -11.817545 -2.489640 4.654221 33.981293 -3.027195 -2.390820 -18.423471 -18.089514 -6.746984 
0.413164 47.711853 0.055030 -0.595786 0.956980 3.437316 -17.708324 -1.079150 0.022222 27.900490 -0.146718 -0.233960 6.328559 0.669722 -0.316242 8.027146 4.864213 0.089428 1.993405 -2.003458 -0.008156 -82.888290 -2.064816 6.947625 -54.972752 -0.524094 -1.326099 -0.055817 -0.006821 45.693359 -2.003062 1.991579 -0.506922 85.548676 2.324167 13.742318 52.352703 0.091898 -0.582791 0.051626 -0.006843 45.517578 -10.460466 3.815295 1.314754 29.110836 3.294670 2.040947 -21.907736 17.508074 7.564819 -11.818689 -2.470191 4.623960 33.961296 -3.027180 -2.381359 -18.398581 -18.094296 -6.724318 
0.406969 47.714725 0.059976 -0.576256 0.976513 3.486274 -17.727858 -1.079032 0.003059 27.900448 -0.112196 -0.244972 6.269987 0.689212 -0.344087 7.978376 4.884137 0.068457 1.993405 -2.003458 -0.008156 -82.932877 -1.958305 6.918014 -55.041283 -0.530513 -1.321127 -0.055819 -0.006819 45.712891 -2.003062 1.991579 -0.506922 85.533501 2.295326 13.780951 52.313644 0.092295 -0.582728 0.051618 -0.006834 45.585938 -10.486548 3.798245 1.326449 29.110836 3.294672 2.040948 -21.962942 17.473507 7.554954 -11.814082 -2.489820 4.615127 33.960094 -3.032604 -2.363513 -18.365295 -18.120098 -6.708861 
0.401892 47.714973 0.062283 -0.615324 0.976506 3.524671 -17.737570 -1.069672 0.000268 27.871161 -0.120860 -0.249481 6.240727 0.718374 -0.370548 7.959007 4.903713 0.060558 1.993405 -2.003458 -0.008156 -82.961983 -1.870977 6.937213 -55.090099 -0.529387 -1.321578 -0.055819 -0.006819 45.712891 -2.003062 1.991579 -0.506922 85.509773 2.238419 13.780560 52.323414 0.092196 -0.582744 0.051610 -0.006826 45.654297 -10.515133 3.807707 1.317444 29.159960 3.294672 2.040431 -21.975706 17.401890 7.545290 -11.780938 -2.460163 4.625484 33.959705 -3.032587 -2.353792 -18.379938 -18.158932 -6.736106 
0.400323 47.714104 0.061439 -0.625084 0.937444 3.554227 -17.766870 -1.069497 0.059409 27.812698 -0.207300 -0.216812 6.221277 0.776650 -0.452325 7.929954 4.933079 0.013257 1.993405 -2.003458 -0.008156 -82.931450 -1.821933 7.083622 -55.090099 -0.529387 -1.321578 -0.055815 -0.006822 45.683594 -2.003062 1.991579 -0.506922 85.543182 2.116263 13.652206 52.362469 0.091798 -0.582807 0.051604 -0.006820 45.703125 -10.531560 3.855354 1.287158 29.210541 3.284295 2.047511 -21.989447 17.415598 7.555500 -11.708858 -2.421811 4.627463 33.902058 -3.022823 -2.361446 -18.406839 -18.176956 -6.738764 
0.400298 47.714973 0.061120 -0.625077 0.898384 3.544888 -17.796284 -1.087918 0.163579 27.773987 -0.345623 -0.191846 6.172488 0.805848 -0.518191 7.900433 4.923757 -0.019898 1.993405 -2.003458 -0.008156 -82.838760 -1.811464 7.278835 -55.080334 -0.529612 -1.321488 -0.048828 0.000000 45.605469 -2.003062 1.991579 -0.506922 85.646812 2.041522 13.514866 52.372238 0.091699 -0.582823 0.051608 -0.006824 45.673828 -10.501009 3.884214 1.275320 29.200718 3.284294 2.047615 -21.948286 17.423084 7.541427 -11.727260 -2.402082 4.567055 33.902058 -3.022823 -2.361446 -18.392826 -18.129848 -6.731776 
0.399661 47.714478 0.065012 -0.595780 0.917919 3.535378 -17.796455 -1.115813 0.221358 27.803522 -0.414636 -0.169879 6.113874 0.796227 -0.529823 7.870800 4.904757 -0.035681 1.993405 -2.003458 -0.008156 -82.784508 -1.820752 7.376751 -55.090099 -0.529387 -1.321578 -0.048828 0.000000 45.517578 -2.003062 1.991579 -0.506922 85.694656 2.079588 13.505465 52.333176 0.092096 -0.582760 0.051620 -0.006837 45.566410 -10.514462 3.866088 1.315701 29.170853 3.284262 2.038200 -21.910204 17.422955 7.533468 -11.800782 -2.440558 4.467261 33.950291 -3.032601 -2.363641 -18.351875 -18.093256 -6.691586 
0.394240 47.711853 0.073430 -0.595786 0.956980 3.613097 -17.767332 -1.143896 0.219959 27.862154 -0.423046 -0.174868 6.094385 0.825387 -0.507448 7.851313 4.914662 -0.016491 1.993405 -2.003458 -0.008156 -82.774437 -1.820792 7.366990 -55.080334 -0.529612 -1.321488 -0.048828 0.000000 45.517578 -2.003062 1.991579 -0.506922 85.725121 2.117136 13.554622 52.294113 0.092493 -0.582697 0.051629 -0.006845 45.498047 -10.494204 3.836516 1.315732 29.140312 3.294671 2.040637 -21.884356 17.393633 7.508858 -11.734822 -2.499662 4.414610 33.942459 -3.017405 -2.378777 -18.395515 -18.101021 -6.714485 
0.382624 47.709602 0.084227 -0.625091 0.976504 3.739348 -17.787107 -1.180966 0.193214 27.852457 -0.440352 -0.193689 6.143361 0.912698 -0.487561 7.861460 4.943568 -0.010820 1.993405 -2.003458 -0.008156 -82.761322 -1.724018 7.346871 -55.099865 -0.529162 -1.321669 -0.048828 0.000000 45.595703 -2.003062 1.991579 -0.506922 85.797867 2.060513 13.514868 52.274582 0.092692 -0.582665 0.051624 -0.006840 45.537109 -10.542192 3.826360 1.288457 29.199257 3.294673 2.040578 -21.817715 17.322672 7.453568 -11.730672 -2.499209 4.366105 34.021248 -3.017415 -2.387452 -18.468800 -18.146708 -6.768484 
0.369041 47.706100 0.093581 -0.625091 0.976504 3.837004 -17.836067 -1.199235 0.141606 27.764599 -0.449350 -0.217095 6.289951 0.960978 -0.479871 7.910816 4.972003 -0.002591 1.993405 -2.003458 -0.008156 -82.746750 -1.617584 7.317312 -55.119389 -0.528711 -1.321849 -0.048828 0.000000 45.605469 -2.003062 1.991579 -0.506922 85.874626 1.975136 13.504416 52.245289 0.092990 -0.582618 0.051616 -0.006832 45.605469 -10.506545 3.866821 1.286182 29.199257 3.294674 2.040579 -21.822222 17.223890 7.402239 -11.683112 -2.479903 4.348200 34.031803 -3.007636 -2.384471 -18.504469 -18.222303 -6.807064 
0.360116 47.701973 0.099691 -0.644619 0.947206 3.895595 -17.884720 -1.171025 0.065275 27.686239 -0.389140 -0.243305 6.446204 0.950982 -0.419755 7.979665 4.990519 0.015802 1.993405 -2.003458 -0.008156 -82.821800 -1.540464 7.209402 -55.119389 -0.528711 -1.321849 -0.048828 0.000000 45.556641 -2.003062 1.991579 -0.506922 85.813507 1.945609 13.631289 52.196465 0.093486 -0.582538 0.051613 -0.006830 45.624996 -10.519598 3.913129 1.294670 29.228340 3.294650 2.029981 -21.772963 17.177244 7.363532 -11.675563 -2.441032 4.288258 34.023952 -2.997678 -2.411203 -18.523413 -18.223145 -6.833632 
0.350513 47.699352 0.106181 -0.654384 0.937439 3.934608 -17.933317 -1.133538 0.005422 27.607866 -0.311534 -0.260626 6.524322 0.941132 -0.380507 7.999388 4.999951 0.038388 1.993405 -2.003458 -0.008156 -82.890335 -1.472772 7.170107 -55.080334 -0.529612 -1.321488 -0.048828 0.000000 45.507813 -2.003062 1.991579 -0.506922 85.713974 1.878083 13.767591 52.186699 0.093586 -0.582523 0.051620 -0.006837 45.566410 -10.489213 3.961213 1.311646 29.208200 3.299413 2.031376 -21.750803 17.150539 7.365679 -11.664149 -2.391974 4.277076 34.060024 -3.022880 -2.388533 -18.520258 -18.294071 -6.831401 
0.338850 47.699722 0.113780 -0.654386 0.947204 3.973559 -17.982212 -1.142513 0.019167 27.549269 -0.311701 -0.250542 6.456008 0.970371 -0.388098 7.930891 5.010457 0.024008 1.993405 -2.003458 -0.008156 -82.866898 -1.424049 7.257975 -55.011806 -0.523190 -1.326455 -0.048828 0.000000 45.429688 -2.003062 1.991579 -0.506922 85.696747 1.764040 13.795927 52.215992 0.093288 -0.582570 0.051633 -0.006850 45.458988 -10.486208 3.964263 1.331477 29.198652 3.304430 2.052160 -21.701382 17.089123 7.317871 -11.622525 -2.372263 4.327403 34.061199 -3.007633 -2.384077 -18.537313 -18.356861 -6.872749 
0.333006 47.701973 0.118705 -0.644619 0.947206 3.954189 -18.031170 -1.160769 0.065246 27.520132 -0.363748 -0.238402 6.348703 1.038515 -0.401880 7.862509 5.030633 0.010936 1.993405 -2.003458 -0.008156 -82.808220 -1.404367 7.355603 -54.953228 -0.524546 -1.325920 -0.048828 0.000000 45.312500 -2.003062 1.991579 -0.506922 85.707695 1.688098 13.805091 52.235519 0.093089 -0.582602 0.044708 -0.013735 45.312500 -10.477465 3.964683 1.311663 29.179609 3.294674 2.040224 -21.739281 17.100273 7.343763 -11.583604 -2.382160 4.359206 34.052532 -2.998019 -2.391114 -18.609989 -18.341383 -6.876819 
0.332647 47.703976 0.120331 -0.644614 0.917911 3.905690 -18.050644 -1.151355 0.072383 27.481192 -0.398532 -0.236653 6.339119 1.125888 -0.372810 7.853296 5.079121 0.026498 1.993405 -2.003458 -0.008156 -82.802994 -1.365656 7.345842 -54.962986 -0.524320 -1.326009 -0.048828 0.000000 45.253906 -2.003062 1.991579 -0.506922 85.663620 1.659160 13.873133 52.255051 0.092891 -0.582634 0.044727 -0.013754 45.234375 -10.470926 3.961736 1.281718 29.177729 3.309133 2.034096 -21.795547 17.161591 7.368418 -11.667213 -2.362940 4.363504 34.068287 -3.032628 -2.371817 -18.614691 -18.289808 -6.870975 
0.328453 47.701973 0.122890 -0.654377 0.898379 3.925288 -18.070057 -1.132659 0.037422 27.412828 -0.398779 -0.245944 6.466185 1.164422 -0.336615 7.941766 5.097386 0.056500 1.993405 -2.003458 -0.008156 -82.858719 -1.356178 7.277271 -54.972752 -0.524094 -1.326099 -0.048828 0.000000 45.263672 -2.003062 1.991579 -0.506922 85.618835 1.668219 13.931986 52.264816 0.092791 -0.582650 0.044722 -0.013749 45.253906 -10.509028 3.990637 1.204008 29.207808 3.299385 2.021648 -21.786732 17.186947 7.382347 -11.586047 -2.333507 4.396045 34.032200 -3.007652 -2.394192 -18.645689 -18.290800 -6.866192 
